Coordinates
version=1
nRows=11
nColumns=36
inDegrees=yes

Units are S.I. units (second, meters, Newtons, ...)
If the header above contains a line with 'inDegrees', this indicates whether rotational values are in degrees (yes) or radians (no).

endheader
time	pelvis_tilt	pelvis_list	pelvis_rotation	pelvis_tx	pelvis_ty	pelvis_tz	hip_flexion_r	hip_adduction_r	hip_rotation_r	knee_angle_r	knee_angle_r_beta	ankle_angle_r	subtalar_angle_r	mtp_angle_r	hip_flexion_l	hip_adduction_l	hip_rotation_l	knee_angle_l	knee_angle_l_beta	ankle_angle_l	subtalar_angle_l	mtp_angle_l	lumbar_extension	lumbar_bending	lumbar_rotation	arm_flex_r	arm_add_r	arm_rot_r	elbow_flex_r	pro_sup_r	arm_flex_l	arm_add_l	arm_rot_l	elbow_flex_l	pro_sup_l
      6.70000000	    -35.13239819	     -6.77448011	      5.81412803	      1.08639447	      0.62037080	     -0.11298454	    102.63580385	    -17.47087807	      0.61015836	     98.84518952	      1.72517401	     40.90339664	      1.46232388	     -7.49999987	    104.86600924	    -15.53847749	      6.59480692	     99.72135439	      1.74046597	     40.41036900	      1.41916205	     -7.49999987	    -25.91896053	      3.63109129	     15.82901455	    102.98541905	    -20.59889345	     81.91240045	    132.18873771	     46.71565244	    101.46150322	      4.06616228	     72.53886959	    115.65982299	     73.33151819
      6.71666670	    -34.69241223	     -6.59541754	      5.68308282	      1.09849148	      0.63801179	     -0.12061142	     99.88284259	    -17.12192421	      0.25517668	     96.61639235	      1.68627416	     40.79903865	      1.25936544	     -7.49999987	    102.00406078	    -15.62442869	      6.07242985	     97.65812755	      1.70445587	     40.96673674	      1.61867379	     -7.49999987	    -25.49868904	      3.74735719	     15.33431337	    100.46594429	    -20.02394591	     82.67586399	    132.06066155	     47.53481619	     97.32001131	      3.37097900	     71.52574461	    115.61289044	     74.41658677
      6.73333330	    -34.13555024	     -6.32256748	      5.58776134	      1.10318193	      0.64698846	     -0.12463244	     97.11698832	    -16.85589517	      0.03180752	     94.42935303	      1.64810312	     40.72951081	      1.09650199	     -7.49999987	     98.97841576	    -15.70464200	      5.41074227	     95.62033608	      1.66888970	     41.34346018	      1.66777811	     -7.49999987	    -24.82492957	      3.63135915	     14.42265730	     98.44638230	    -19.80975971	     82.78383724	    132.46886556	     48.45945599	     95.72901984	      3.72454457	     71.92499616	    115.34469971	     73.81352027
      6.75000000	    -33.32886287	     -6.09537046	      5.39544373	      1.11678394	      0.66818241	     -0.11760824	     93.70822941	    -16.36404328	     -0.34930110	     91.89333071	      1.60384118	     40.67475325	      1.19055119	     -7.49999987	     95.37989410	    -16.05324483	      4.72683279	     93.25117050	      1.62753996	     41.99913049	      2.33324870	     -7.49999987	    -24.73759559	      3.18367094	     14.72417491	     96.36759410	    -19.38845932	     83.08852205	    133.00389355	     49.28821559	     93.51527784	      3.33871389	     72.30930094	    116.24830451	     74.01137995
      6.76666670	    -32.96902240	     -6.05509622	      5.19916488	      1.12185937	      0.68447897	     -0.11600291	     90.50580246	    -15.78028284	     -0.86897868	     88.96255747	      1.55268954	     40.46430345	      1.03186648	     -7.49999987	     92.10434040	    -16.42424044	      4.08586779	     90.44573111	      1.57857580	     42.10453100	      2.72383675	     -7.49999987	    -24.17617809	      2.98275396	     14.44619121	     94.83422244	    -19.83502989	     83.36641898	    132.98632486	     49.39783366	     91.71388902	      3.21293780	     73.07991314	    116.42682476	     74.34540028
      6.78333330	    -31.52292103	     -5.75544545	      5.04066949	      1.11655669	      0.69489993	     -0.11822994	     86.67389696	    -15.30648125	     -1.27561210	     86.27483291	      1.50577990	     40.25397251	      0.88549224	     -7.49999987	     88.01348377	    -16.92431390	      3.19045900	     87.87203544	      1.53365634	     42.36637322	      3.49031933	     -7.49999987	    -24.80083695	      2.61858054	     14.22150895	     95.17356885	    -19.39434496	     82.26869632	    134.33756388	     49.84109499	     93.31046373	      4.46475452	     72.76190734	    117.22284556	     75.26437390
      6.80000000	    -30.67144034	     -5.59440164	      4.77527939	      1.12793388	      0.71019010	     -0.11334045	     83.42330492	    -14.74909344	     -1.82617199	     83.56494550	      1.45848344	     40.11007945	      0.93866655	     -7.49999987	     84.52890188	    -17.46510090	      2.38128778	     85.14504638	      1.48606140	     42.27643957	      3.99114553	     -7.49999987	    -24.68104496	      2.34894558	     14.47128929	     94.56892335	    -20.06240536	     80.98211904	    132.24056886	     50.08403834	     91.90060742	      3.79657469	     72.83210141	    116.06127542	     76.11209295
      6.81666670	    -30.14397031	     -5.53619130	      4.46394621	      1.12950459	      0.72269242	     -0.11145130	     80.71327267	    -14.20497363	     -2.41532445	     80.99108016	      1.41356101	     39.79822879	      1.01990456	     -7.49999987	     81.64445787	    -18.04870338	      1.63102452	     82.54448284	      1.44067300	     41.91133964	      4.48619741	     -7.49999987	    -23.85795780	      2.04729092	     14.36098744	     93.34029373	    -18.54120960	     80.53604578	    133.07606624	     50.37094304	     91.21453057	      4.03233203	     72.98572355	    117.23094113	     76.54359412
      6.83333330	    -28.88303025	     -5.38788825	      4.22448485	      1.13548595	      0.73940996	     -0.10455206	     77.18419851	    -13.56376141	     -2.97593860	     78.27345157	      1.36612945	     39.53123233	      1.08803508	     -7.49999987	     77.90617476	    -18.74458610	      0.66634638	     79.75275102	      1.39194809	     41.53713965	      5.23327404	     -7.49999987	    -24.17114662	      1.75385071	     13.78785224	     92.52944075	    -16.80642466	     77.83136855	    130.11867548	     61.42798307	     90.99739234	      2.58535124	     70.26625339	    116.98903661	     92.07131464
      6.85000000	    -28.42729151	     -5.40648560	      3.90491674	      1.14203008	      0.74936670	     -0.10678814	     74.74772008	    -12.99137539	     -3.62124745	     75.82947386	      1.32347399	     39.09921919	      1.20678298	     -7.49999987	     75.31739921	    -19.40808804	     -0.16015250	     77.24864157	      1.34824314	     40.79179688	      5.77039245	     -7.49999987	    -22.90652515	      1.57368842	     13.35497513	     91.49778344	    -16.19025710	     77.78783674	    131.09064841	     61.52622268	     89.99476062	      3.07048067	     70.81927898	    117.91661168	     92.11191197
      6.86666670	    -27.11342326	     -5.13562912	      3.56800559	      1.13505707	      0.75692046	     -0.10934582	     71.99043435	    -12.49229319	     -3.91530119	     73.84634459	      1.28886185	     38.66841639	      1.16967013	     -7.49999987	     72.19991531	    -20.05158681	     -1.25073766	     75.21375966	      1.31272775	     40.44978213	      6.37142175	     -7.49999987	    -23.18632982	      1.37470171	     12.97684200	     92.49667023	    -16.53569619	     74.64105748	    131.77377143	     61.61728222	     91.88199078	      3.72497473	     69.35519028	    118.10922135	     92.13351697
